<?xml version="1.0" encoding="UTF-8"?> <svg xmlns="http://www.w3.org/2000/svg" id="Слой_1" data-name="Слой 1" viewBox="0 0 712 700.19"><defs><style>.cls-1,.cls-2{fill:#fff;}.cls-2,.cls-3{stroke:#000;stroke-miterlimit:10;}.cls-2{stroke-width:38px;}.cls-3{fill:none;stroke-width:23px;}</style></defs><polygon points="29.73 307.64 389 116.19 44.27 332.73 29.73 307.64"></polygon><circle cx="40" cy="324.19" r="26"></circle><rect class="cls-1" x="8" y="328.19" width="696" height="364" rx="7.8"></rect><path d="M1307,408V756H627V408h680m.2-16H626.8A15.8,15.8,0,0,0,611,407.8V756.2A15.8,15.8,0,0,0,626.8,772h680.4a15.8,15.8,0,0,0,15.8-15.8V407.8a15.8,15.8,0,0,0-15.8-15.8Z" transform="translate(-611 -71.81)"></path><circle cx="380.5" cy="120.69" r="12.5"></circle><circle class="cls-1" cx="170.5" cy="509.69" r="93.5"></circle><path d="M781.5,507A74.5,74.5,0,1,1,707,581.5,74.58,74.58,0,0,1,781.5,507m0-38A112.5,112.5,0,1,0,894,581.5,112.5,112.5,0,0,0,781.5,469Z" transform="translate(-611 -71.81)"></path><line class="cls-2" x1="349" y1="432.19" x2="649" y2="432.19"></line><line class="cls-2" x1="349" y1="504.19" x2="649" y2="504.19"></line><line class="cls-2" x1="349" y1="576.19" x2="649" y2="576.19"></line><path class="cls-3" d="M986.25,128.56s31.48,10,44.6,40.14-2.25,63.74-2.25,63.74" transform="translate(-611 -71.81)"></path><path class="cls-3" d="M997.81,82.61s58.86,21.6,78.69,66.05-3.25,101.63-3.25,101.63" transform="translate(-611 -71.81)"></path><circle cx="170.5" cy="509.69" r="43.5"></circle></svg> 